<svg width="39" height="54" viewBox="0 0 39 54" fill="none" xmlns="http://www.w3.org/2000/svg">
<path d="M9.66424 9.12419V25.1136H16.123C18.6435 24.9561 21.4003 24.6411 23.4482 22.987C25.1811 21.648 25.8112 19.3637 25.8112 17.2371C25.89 15.1892 25.3386 12.9049 23.7633 11.4872C22.1092 9.99061 19.9038 9.43925 17.7771 9.28172C15.0203 9.04543 12.3423 9.12419 9.66424 9.12419ZM1 1.01131H15.1778C18.7223 0.932549 22.4243 1.24761 25.8112 2.50786C28.9619 3.61059 31.7187 5.89479 33.1364 8.96666C34.8693 12.7474 35.0268 17.0795 34.3967 21.1754C33.7666 24.9561 31.4824 28.4218 28.0954 30.3122C31.0885 37.5586 34.2392 44.8051 37.1535 52.1303H27.7804C25.2599 45.7503 22.7394 39.2915 20.2189 32.8327C16.7532 33.3841 13.2087 33.069 9.743 33.1478V52.1303H1V1.01131Z" fill="white" stroke="black" stroke-width="2"/>
</svg>
